# xmcd
#
# Track frame offsets: 
#        150
#        22497
#        47349
#        63363
#        87328
#        99380
#        112815
#        128465
#        151680
#        174370
#        212775
#
# Disc length: 3245 seconds
#
# Revision: 1
# Processed by: cddbd v1.5.2PL0 Copyright (c) Steve Scherf et al.
# Submitted via: ExactAudioCopy v0.99pb4
#
DISCID=810cab0b
DTITLE=Popa Chubby - The Hungry Years
DYEAR=2003
DGENRE=Blues
TTITLE0=Stoop Down Baby
TTITLE1=Shake Down
TTITLE2=Looking For One Kiss
TTITLE3=Take Off A!
TTITLE4=Working Class Blues
TTITLE5=Lo Han Sway
TTITLE6=Feel My Eyes On You
TTITLE7=Rain On My Mind
TTITLE8=It's Chubby Time
TTITLE9=San Catri
TTITLE10=What's Your Problem? Pipeline
EXTD=YEAR: 2003
EXTT0=
EXTT1=
EXTT2=
EXTT3=
EXTT4=
EXTT5=
EXTT6=
EXTT7=
EXTT8=
EXTT9=
EXTT10=
PLAYORDER=
